<?xml version="1.0" standalone="no"?>
<!DOCTYPE svg PUBLIC "-//W3C//DTD SVG 20010904//EN"
 "http://www.w3.org/TR/2001/REC-SVG-20010904/DTD/svg10.dtd">
<svg version="1.0" xmlns="http://www.w3.org/2000/svg"
 width="500.000000pt" height="500.000000pt" viewBox="0 0 500.000000 500.000000"
 preserveAspectRatio="xMidYMid meet">

<g transform="translate(0.000000,500.000000) scale(0.100000,-0.100000)"
fill="#000000" stroke="none">
<path d="M2373 4485 c-35 -24 -192 -82 -289 -106 -119 -30 -162 -69 -194 -179
-12 -41 -28 -84 -35 -95 -21 -35 -38 -89 -45 -145 -4 -30 -24 -109 -45 -175
-32 -101 -38 -135 -39 -215 l-1 -95 75 -27 c47 -17 97 -27 133 -27 59 -1 127
-22 127 -40 0 -6 -6 -34 -14 -63 -7 -30 -11 -76 -9 -105 3 -28 0 -73 -6 -100
-9 -38 -9 -56 0 -78 7 -17 13 -103 16 -201 2 -95 9 -194 16 -220 l12 -49 105
-6 c58 -4 141 -16 184 -28 64 -17 108 -21 230 -21 151 0 151 0 266 41 132 46
218 73 275 85 l40 9 3 83 c2 45 -2 99 -7 119 -8 30 -6 50 10 105 18 59 20 75
10 111 -9 31 -9 59 -2 107 6 36 11 95 11 132 0 65 1 68 28 74 15 4 41 15 57
24 17 10 55 23 85 30 30 6 82 21 115 33 49 18 61 26 63 47 2 22 -66 263 -97
343 -6 16 -11 46 -11 67 0 22 -6 54 -14 72 -8 18 -24 74 -35 123 -30 128 -55
171 -117 207 -28 15 -106 48 -172 72 -67 25 -144 57 -171 72 l-50 27 -63 -18
c-91 -26 -245 -24 -322 4 -70 25 -94 26 -123 6z"/>
<path d="M1471 2272 c-18 -14 -23 -31 -28 -93 -3 -42 -3 -93 1 -113 6 -32 10
-36 38 -36 40 0 92 33 117 74 31 49 29 129 -4 161 -30 30 -92 34 -124 7z m77
-64 c18 -18 15 -53 -7 -79 -28 -34 -43 -15 -35 44 7 47 19 58 42 35z"/>
<path d="M2246 2260 c-44 -53 -48 -156 -8 -209 16 -21 28 -26 68 -27 27 -1 56
-3 64 -5 11 -3 14 3 12 21 -1 14 -2 39 0 55 7 100 -8 167 -43 185 -33 18 -66
11 -93 -20z m68 -66 c11 -29 6 -62 -10 -68 -9 -4 -14 -13 -10 -22 3 -8 2 -12
-4 -9 -11 7 -14 98 -3 108 11 11 20 8 27 -9z"/>
<path d="M3253 2259 c-7 -35 -46 -57 -69 -38 -8 7 -27 9 -45 5 -19 -3 -38 -1
-46 6 -23 18 -36 -5 -41 -72 -2 -34 -8 -57 -14 -54 -5 3 -23 0 -39 -6 -40 -17
-48 -5 -10 14 45 24 58 87 23 114 -27 21 -69 14 -91 -14 -19 -24 -22 -25 -36
-10 -19 18 -61 21 -70 5 -5 -7 -13 -5 -24 5 -11 10 -21 12 -31 6 -12 -7 -14
-27 -12 -87 3 -91 8 -113 27 -113 20 0 27 16 34 79 6 55 6 56 41 59 19 2 38 9
42 15 4 7 5 -5 1 -25 -15 -96 70 -156 133 -93 30 30 34 31 34 6 0 -10 6 -24
14 -30 21 -17 36 9 43 74 8 80 23 78 23 -4 0 -113 41 -106 63 11 14 74 33 81
29 11 -3 -58 14 -94 48 -103 36 -10 70 5 70 30 0 15 -7 20 -24 20 -33 0 -38
12 -31 64 6 36 12 46 31 50 31 8 31 34 -1 42 -14 3 -22 10 -19 15 10 17 -7 49
-27 49 -14 0 -21 -9 -26 -31z m-273 -84 c0 -8 -7 -15 -16 -15 -14 0 -14 3 -4
15 7 8 14 15 16 15 2 0 4 -7 4 -15z"/>
<path d="M1799 2219 c-14 -27 -8 -174 8 -190 22 -22 43 8 43 61 0 54 7 80 22
80 6 0 9 -24 7 -57 -3 -81 -1 -93 17 -93 35 0 63 160 33 196 -14 17 -65 19
-75 3 -5 -8 -10 -6 -16 5 -12 22 -25 20 -39 -5z"/>
<path d="M3381 2214 c-24 -30 -36 -83 -27 -119 16 -64 86 -86 132 -40 30 30
34 31 34 6 0 -10 6 -24 14 -30 21 -17 36 9 43 74 8 80 23 78 23 -4 0 -110 41
-107 62 5 9 49 8 66 -3 90 -13 25 -20 29 -54 29 -22 0 -46 4 -53 9 -23 14 -35
-10 -40 -74 -2 -34 -8 -57 -14 -54 -5 3 -23 0 -39 -6 -40 -17 -48 -5 -10 14
45 24 58 87 23 114 -27 21 -69 14 -91 -14z m59 -39 c0 -8 -7 -15 -16 -15 -14
0 -14 3 -4 15 7 8 14 15 16 15 2 0 4 -7 4 -15z"/>
<path d="M1665 2213 c-52 -51 -42 -170 16 -188 56 -18 99 28 99 108 0 79 -68
127 -115 80z m59 -67 c3 -14 1 -37 -5 -52 -8 -23 -12 -25 -19 -14 -11 17 -13
74 -3 83 12 13 21 7 27 -17z"/>
<path d="M1976 2211 c-22 -25 -14 -57 12 -46 28 12 55 11 59 -2 3 -8 -4 -13
-15 -13 -27 0 -82 -47 -82 -69 0 -31 36 -54 74 -48 18 3 38 1 44 -5 6 -6 18
-8 26 -5 23 9 22 121 -2 167 -15 30 -22 35 -58 38 -30 2 -45 -2 -58 -17z m74
-110 c0 -12 -20 -25 -27 -18 -7 7 6 27 18 27 5 0 9 -4 9 -9z"/>
<path d="M2414 2195 c-29 -71 -13 -145 39 -166 55 -23 107 26 107 103 0 53
-16 88 -40 88 -22 0 -23 -4 -21 -70 2 -50 -10 -77 -29 -65 -9 5 -11 24 -7 62
3 30 3 61 0 69 -9 25 -34 15 -49 -21z"/>
<path d="M2591 2211 c-12 -12 -21 -26 -21 -31 0 -16 30 -24 43 -11 16 16 47
14 47 -3 0 -8 -12 -17 -27 -21 -40 -10 -63 -34 -63 -65 0 -36 21 -52 64 -49
19 2 38 0 42 -4 17 -16 44 -6 50 19 10 40 -4 126 -24 154 -26 34 -83 39 -111
11z m79 -110 c0 -11 -31 -24 -39 -16 -3 3 1 10 9 15 19 12 30 12 30 1z"/>
<path d="M3696 2211 c-22 -25 -14 -57 12 -46 28 12 55 11 59 -2 3 -8 -4 -13
-15 -13 -27 0 -82 -47 -82 -69 0 -31 36 -54 74 -48 18 3 38 1 44 -5 6 -6 18
-8 26 -5 23 9 22 121 -2 167 -15 30 -22 35 -58 38 -30 2 -45 -2 -58 -17z m74
-110 c0 -12 -20 -25 -27 -18 -7 7 6 27 18 27 5 0 9 -4 9 -9z"/>
<path d="M2170 1724 c0 -20 -4 -25 -16 -20 -29 11 -64 -21 -64 -58 0 -42 17
-57 64 -54 l36 3 0 78 c0 45 -4 77 -10 77 -5 0 -10 -12 -10 -26z m0 -80 c0
-38 -21 -54 -49 -37 -40 25 -12 105 30 83 13 -8 19 -21 19 -46z"/>
<path d="M2520 1720 c0 -28 -2 -30 -20 -20 -44 23 -85 -34 -61 -86 9 -21 17
-24 51 -22 l40 2 0 78 c0 43 -2 78 -5 78 -3 0 -5 -14 -5 -30z m-3 -58 c12 -47
-37 -83 -64 -46 -18 25 -16 41 7 64 24 24 48 17 57 -18z"/>
<path d="M2740 1732 c0 -5 13 -7 30 -4 56 8 48 -39 -18 -110 l-26 -28 55 2
c51 1 51 2 11 5 l-43 4 36 40 c26 29 35 48 33 67 -3 23 -8 27 -40 30 -21 2
-38 -1 -38 -6z"/>
<path d="M2860 1706 c-19 -58 4 -116 46 -116 28 0 44 27 44 75 0 52 -15 75
-50 75 -24 0 -30 -6 -40 -34z m74 8 c10 -27 7 -89 -6 -102 -17 -17 -45 -15
-52 4 -8 21 -8 99 1 107 12 13 51 7 57 -9z"/>
<path d="M2987 1733 c-3 -4 9 -8 26 -8 49 0 48 -34 -4 -90 l-42 -45 54 2 c52
1 53 2 10 5 l-44 4 37 38 c29 30 37 45 34 67 -2 24 -8 29 -35 32 -17 2 -33 -1
-36 -5z"/>
<path d="M3112 1728 c-15 -15 -16 -92 -2 -119 13 -22 52 -25 70 -4 15 18 15
102 0 120 -15 18 -52 19 -68 3z m62 -14 c3 -9 6 -31 6 -49 0 -45 -9 -65 -29
-65 -27 0 -41 21 -41 61 0 52 9 69 35 69 13 0 26 -7 29 -16z"/>
<path d="M2242 1694 c-15 -10 -22 -25 -22 -48 0 -40 16 -56 55 -55 27 2 27 2
5 6 -59 11 -66 43 -9 43 36 0 40 3 37 21 -2 12 -12 28 -23 35 -18 12 -24 11
-43 -2z m42 -10 c21 -21 12 -34 -25 -34 -33 0 -40 23 -11 39 9 6 18 11 19 11
1 0 9 -7 17 -16z"/>
<path d="M2348 1699 c-28 -16 -21 -39 18 -55 43 -18 40 -37 -7 -45 l-34 -6 38
-2 c27 -1 39 4 44 16 6 16 -9 32 -53 59 -25 15 -12 27 28 27 27 -1 29 1 13 7
-26 11 -27 11 -47 -1z"/>
<path d="M2582 1694 c-24 -16 -29 -53 -12 -85 8 -14 20 -19 48 -18 34 2 34 2
7 6 -63 10 -74 43 -15 43 36 0 40 3 40 25 0 14 -8 29 -19 35 -25 13 -22 13
-49 -6z m58 -29 c0 -10 -10 -15 -29 -15 -37 0 -46 13 -25 34 18 18 54 6 54
-19z"/>
</g>
</svg>
